<svg width="33" height="41" viewBox="0 0 33 41" fill="none" xmlns="http://www.w3.org/2000/svg">
<path d="M32.4417 34.4173C32.2803 33.818 32.0526 33.2787 31.7711 32.8007C31.2793 31.9586 30.6237 31.303 29.9017 30.7825C29.3612 30.3896 28.7806 30.0705 28.1901 29.7965C27.3054 29.3836 26.4008 29.0683 25.5613 28.7642C24.7217 28.4602 23.951 28.1649 23.3453 27.8233L23.2778 27.7845C23.06 27.6594 22.8636 27.5268 22.6947 27.3879C22.4382 27.179 22.2418 26.9562 22.0966 26.7073C21.9527 26.4583 21.8576 26.178 21.8188 25.8264C21.7925 25.5799 21.7812 25.5962 21.7812 25.3472C21.7812 24.6115 21.8864 23.8871 22.009 23.2927C22.3869 22.8748 22.731 22.3768 23.0551 21.7812C23.3816 21.1819 23.6919 20.4825 24.001 19.6541C24.1999 19.564 24.3989 19.4589 24.5941 19.3288C25.0395 19.036 25.4624 18.6256 25.8128 18.0788C26.1656 17.5321 26.4484 16.8526 26.6411 16.0143C26.6949 15.7828 26.7212 15.5501 26.7212 15.3224C26.7212 14.8469 26.606 14.394 26.4147 13.9873C26.282 13.7083 26.1106 13.4506 25.9142 13.2153C26.0155 12.8499 26.1369 12.3582 26.2458 11.7814C26.3959 10.9831 26.5211 10.0222 26.5211 9.01367C26.5211 8.36056 26.4697 7.68734 26.3359 7.02421C26.2345 6.52621 26.0869 6.03076 25.8754 5.55774C25.5613 4.84577 25.1059 4.17639 24.4716 3.62338C23.8835 3.11039 23.1465 2.70376 22.2581 2.44222C21.944 2.07186 21.6275 1.75651 21.3034 1.48881C21.0244 1.25859 20.7391 1.06336 20.4463 0.905764C20.0059 0.665529 19.5504 0.507855 19.0837 0.41024C18.617 0.313906 18.1403 0.277631 17.6473 0.277631C16.9666 0.280113 16.2497 0.345217 15.4601 0.421531C15.1623 0.451561 14.9109 0.487836 14.6931 0.525393C14.3691 0.582969 14.1251 0.643027 13.9311 0.680584C13.8323 0.700603 13.7472 0.715658 13.6646 0.723105C13.5795 0.735598 13.4994 0.740643 13.4044 0.740643C13.2818 0.740643 13.1366 0.730633 12.9502 0.703086C12.3746 0.620525 11.8466 0.492881 11.4336 0.367719C11.2272 0.306379 11.0495 0.245119 10.9081 0.192508C10.838 0.167443 10.7767 0.142459 10.7292 0.122439C10.6804 0.10242 10.6416 0.0848828 10.6216 0.074873C10.5577 0.0423613 10.4964 0.0248242 10.4414 0.0135332C10.3877 0.00248242 10.3402 0 10.2976 0C10.21 0 10.1488 0.0124922 10.0975 0.0250645C10.0499 0.0388379 10.0111 0.0526113 9.97605 0.0663848C9.90975 0.0926504 9.8597 0.121479 9.80965 0.151508C9.71452 0.20532 9.62699 0.26666 9.53314 0.33793C9.36922 0.463092 9.18656 0.618203 8.9951 0.800861C8.70858 1.07361 8.39947 1.40393 8.12048 1.76308C7.98163 1.94326 7.84894 2.13096 7.73138 2.32491C7.61375 2.52014 7.50989 2.71905 7.42604 2.92798C7.02317 3.96146 6.75411 4.91496 6.58899 5.79325C6.42259 6.67411 6.35748 7.47994 6.35748 8.21938C6.35748 9.42928 6.53013 10.4553 6.69533 11.3211C6.69533 11.3624 6.69661 11.4025 6.70038 11.4437C6.70542 11.5251 6.71287 11.6089 6.72168 11.6965C6.73545 11.8279 6.75171 11.9605 6.7642 12.0731C6.76924 12.1294 6.77549 12.1794 6.77797 12.2182C6.77925 12.237 6.78045 12.2545 6.78045 12.267L6.78174 12.2795V12.282V12.2833V12.3584L6.94317 13.0666C6.71295 13.3168 6.50899 13.5958 6.3526 13.9036C6.13487 14.3316 6.00602 14.8145 6.00602 15.3238C6.00602 15.5502 6.03108 15.7829 6.08482 16.0157V16.0144C6.21366 16.5737 6.38135 17.0617 6.58402 17.4871C6.8868 18.1265 7.26973 18.6233 7.69511 18.9961C8.02543 19.2864 8.37577 19.4979 8.72483 19.6543C9.03385 20.4813 9.34416 21.1808 9.67079 21.7788C9.99615 22.3757 10.3402 22.8724 10.7156 23.2903C10.8395 23.8871 10.9445 24.6116 10.942 25.3486C10.942 25.5975 10.932 25.5801 10.9058 25.8266C10.8795 26.0681 10.8244 26.277 10.7481 26.4634C10.6317 26.7437 10.464 26.9826 10.2325 27.2079C10.0048 27.4319 9.71203 27.6396 9.36417 27.8323L9.09519 27.9749C8.80867 28.1201 8.49084 28.2576 8.15299 28.3915C7.37471 28.7031 6.48889 28.9946 5.58921 29.3475C4.91608 29.6128 4.23165 29.9131 3.58221 30.2909C3.09422 30.5737 2.62256 30.9015 2.19214 31.2906C1.54527 31.8737 0.987203 32.5994 0.601867 33.4978C0.213969 34.3987 0 35.4622 0 36.7209C0 36.8962 0.0387578 37.0675 0.100098 37.2227C0.158875 37.3691 0.237752 37.5043 0.332805 37.6318C0.510498 37.8696 0.739441 38.0823 1.0222 38.2875C1.51396 38.6454 2.16956 38.9795 3.01919 39.296C4.29043 39.7678 5.99457 40.1919 8.19928 40.4997C10.404 40.8074 13.1041 41 16.3623 41C19.1863 41 21.5924 40.8561 23.6181 40.6171C25.1383 40.437 26.4446 40.2043 27.5532 39.939C28.3853 39.7388 29.1047 39.5198 29.724 39.2883C30.1883 39.1169 30.5936 38.9355 30.9477 38.7503C31.2117 38.6126 31.4469 38.47 31.6534 38.3223C31.9637 38.1021 32.214 37.8744 32.4042 37.6166C32.4967 37.4865 32.5768 37.3488 32.6344 37.2C32.6907 37.0511 32.7245 36.8884 32.7245 36.7208C32.7245 35.8663 32.6257 35.1018 32.4417 34.4173ZM10.4265 6.97929C14.1088 7.78383 21.3058 6.24609 21.3058 6.24609C21.3058 6.24609 21.3846 8.00533 22.6109 9.61314C22.9875 10.1074 23.3115 10.8156 23.5768 11.5488C23.523 11.5288 23.3654 11.5275 23.2114 11.5075C23.045 11.4837 23.0162 11.3811 22.9975 11.2897C22.955 11.092 22.7697 11.032 22.4694 10.9919C21.8951 10.9156 21.0456 10.8656 20.0884 10.9131C17.2406 11.052 17.4521 11.311 16.3335 11.311C15.2148 11.311 15.4275 11.0521 12.5811 10.9131C11.6226 10.8656 10.7718 10.9156 10.1975 10.9919C9.89966 11.032 9.71196 11.092 9.66943 11.2897C9.65069 11.3811 9.62315 11.4837 9.45675 11.5075C9.4067 11.5137 9.35665 11.5188 9.31036 11.5225C9.7383 10.3914 10.3289 8.97003 10.4265 6.97929ZM22.4269 13.0152C22.4256 13.0302 22.4156 14.6618 21.3045 15.2211C20.9279 15.4126 20.455 15.5164 19.9732 15.5164C19.464 15.5164 18.9998 15.4013 18.6282 15.1848C18.2203 14.9433 17.9425 14.5867 17.8074 14.1263C17.7761 14.0186 17.746 13.911 17.7173 13.806C17.6285 13.4894 17.3932 12.6085 17.895 12.2182C18.2178 11.9666 19.2225 11.8065 20.1822 11.8065C21.0581 11.8065 21.949 11.9266 22.2105 12.1993C22.3819 12.3771 22.4495 12.6999 22.4269 13.0152ZM14.9496 13.806C14.9209 13.9111 14.8908 14.0186 14.8595 14.1263C14.7244 14.5867 14.4491 14.9433 14.0387 15.1848C13.6671 15.4013 13.2029 15.5164 12.6949 15.5164C12.2145 15.5164 11.7415 15.4126 11.3636 15.2211C10.2526 14.6618 10.2413 13.0302 10.2401 13.0152C10.2188 12.6998 10.2864 12.377 10.4578 12.1993C10.7181 11.9266 11.6102 11.8065 12.4848 11.8065C13.4458 11.8065 14.4492 11.9666 14.7733 12.2182C15.275 12.6085 15.0385 13.4894 14.9496 13.806ZM15.016 34.4861L10.6705 28.5966C10.7268 28.5579 10.7806 28.5165 10.8357 28.474C11.0734 28.2863 11.2949 28.0749 11.4901 27.8384L14.991 29.4362L14.2428 30.6611L15.4013 31.8686L15.016 34.4861ZM11.9843 27.0289C12.1269 26.7048 12.222 26.3482 12.262 25.9653C12.2934 25.6675 12.3071 25.6375 12.3071 25.3485C12.3071 24.4051 12.1645 23.5229 12.0118 22.831L11.9705 22.6483L11.8404 22.5132C11.51 22.1691 11.191 21.7311 10.8732 21.1443C10.5529 20.56 10.2338 19.8317 9.90718 18.9234L9.79956 18.6256L9.49927 18.518C9.29034 18.4429 9.08759 18.3453 8.89244 18.2164C8.59839 18.0212 8.31811 17.7572 8.06291 17.3618C7.8089 16.9652 7.57867 16.4347 7.41475 15.7177C7.38344 15.5826 7.36967 15.4512 7.36967 15.3236C7.36967 15.0383 7.43974 14.7655 7.57235 14.5041C7.68117 14.2888 7.83636 14.0824 8.0203 13.8984C8.33565 14.3639 8.59334 14.733 8.68599 14.8256C8.99381 15.1272 9.03762 14.4165 8.89244 13.6182C8.81236 13.1815 8.89996 12.7211 9.06765 12.1993C9.06765 12.3344 9.06765 12.4445 9.06765 12.4746C9.06765 12.5534 9.15397 12.6623 9.26912 12.6623C9.38548 12.6623 9.4706 12.7223 9.4706 12.8011C9.4706 12.94 9.47933 14.9094 10.9771 15.7052C12.4749 16.5011 14.7095 16.202 15.4702 14.4315C15.813 13.632 15.8168 12.8513 16.3335 12.8513C16.8491 12.8513 16.854 13.632 17.1981 14.4315C17.9576 16.202 20.1935 16.5011 21.69 15.7052C23.1877 14.9094 23.1978 12.9401 23.1978 12.8011C23.1978 12.7223 23.2816 12.6623 23.3979 12.6623C23.5143 12.6623 23.5994 12.5534 23.5994 12.4746C23.5994 12.402 23.5994 11.7814 23.5994 11.6075C24.1437 13.1252 24.439 14.7243 24.439 14.7243C24.439 14.7243 24.5966 14.429 24.8331 14.0336C24.9745 14.1962 25.0921 14.3715 25.1772 14.5541C25.2936 14.7994 25.3561 15.0559 25.3561 15.3224C25.3561 15.4512 25.3423 15.5826 25.311 15.7178C25.2022 16.1958 25.0621 16.5911 24.9069 16.9177C24.6729 17.4095 24.4026 17.7472 24.1211 17.9963C23.8395 18.2428 23.5405 18.4054 23.2277 18.5181L22.9261 18.6257L22.8198 18.9222C22.4932 19.8318 22.1729 20.5601 21.8538 21.1469C21.5335 21.7312 21.2145 22.1716 20.8841 22.5144L20.754 22.6508L20.7127 22.8323C20.5601 23.5229 20.4186 24.4051 20.4174 25.3472C20.4186 25.6375 20.4324 25.6662 20.4624 25.9653C20.5 26.3132 20.5801 26.6397 20.7014 26.94C20.7076 26.9538 20.7139 26.9676 20.7201 26.9814L16.5761 29.1235L11.9843 27.0289ZM18.0539 34.7664L17.6273 31.8685L18.7834 30.6611L18.0327 29.4312L21.2008 27.7934C21.2885 27.9047 21.3823 28.0098 21.4798 28.1087C21.6625 28.2914 21.8589 28.4553 22.0666 28.6067L18.0539 34.7664Z" fill="#4B4B4B"/>
<path d="M21.8114 19.3001C21.8114 19.3001 20.9618 18.9059 20.41 18.0513C19.7018 16.9565 18.2303 15.6828 16.3773 16.6938C14.523 15.6828 13.0541 16.9565 12.3434 18.0513C11.7929 18.9059 10.9458 19.3001 10.9458 19.3001C10.9458 19.3001 12.0269 20.5338 14.1914 19.8056C15.9469 19.2163 16.3773 18.0326 16.3773 18.0326C16.3773 18.0326 16.8078 19.2162 18.5632 19.8056C20.7265 20.5338 21.8114 19.3001 21.8114 19.3001Z" fill="#4B4B4B"/>
</svg>
